<mxfile host="app.diagrams.net" modified="2023-06-11T08:02:36.259Z" agent="Mozilla/5.0 (Windows NT 10.0; Win64; x64) AppleWebKit/537.36 (KHTML, like Gecko) Chrome/114.0.0.0 Safari/537.36" etag="dNm-M_XpUS7Kw7luVzU1" version="21.3.8" type="device">
  <diagram name="페이지-1" id="9SHQC-s5W3MiuN1ODY7i">
    <mxGraphModel dx="3267" dy="1674" grid="1" gridSize="10" guides="1" tooltips="1" connect="1" arrows="1" fold="1" page="1" pageScale="1" pageWidth="827" pageHeight="1169" math="0" shadow="0">
      <root>
        <mxCell id="0" />
        <mxCell id="1" parent="0" />
        <mxCell id="339VbT9Xqeo3pvICzhQg-5" value="" style="rounded=1;whiteSpace=wrap;html=1;strokeWidth=0;" parent="1" vertex="1">
          <mxGeometry x="20" y="470" width="1350" height="1100" as="geometry" />
        </mxCell>
        <mxCell id="339VbT9Xqeo3pvICzhQg-2" value="" style="rounded=0;whiteSpace=wrap;html=1;" parent="1" vertex="1">
          <mxGeometry x="160" y="450" width="340" height="60" as="geometry" />
        </mxCell>
        <mxCell id="339VbT9Xqeo3pvICzhQg-3" value="book.js" style="text;html=1;strokeColor=none;fillColor=none;align=center;verticalAlign=middle;whiteSpace=wrap;rounded=0;fontSize=18;" parent="1" vertex="1">
          <mxGeometry x="610" y="400" width="140" height="60" as="geometry" />
        </mxCell>
        <mxCell id="339VbT9Xqeo3pvICzhQg-9" value="" style="endArrow=classic;html=1;rounded=0;" parent="1" edge="1">
          <mxGeometry width="50" height="50" relative="1" as="geometry">
            <mxPoint x="164.17000000000002" y="670" as="sourcePoint" />
            <mxPoint x="164" y="1300" as="targetPoint" />
          </mxGeometry>
        </mxCell>
        <mxCell id="339VbT9Xqeo3pvICzhQg-14" value="" style="group" parent="1" vertex="1" connectable="0">
          <mxGeometry x="110" y="560" width="110" height="110" as="geometry" />
        </mxCell>
        <mxCell id="339VbT9Xqeo3pvICzhQg-11" value="" style="ellipse;whiteSpace=wrap;html=1;aspect=fixed;" parent="339VbT9Xqeo3pvICzhQg-14" vertex="1">
          <mxGeometry width="110" height="110" as="geometry" />
        </mxCell>
        <mxCell id="339VbT9Xqeo3pvICzhQg-12" value="생성" style="ellipse;whiteSpace=wrap;html=1;aspect=fixed;" parent="339VbT9Xqeo3pvICzhQg-14" vertex="1">
          <mxGeometry x="15" y="15" width="80" height="80" as="geometry" />
        </mxCell>
        <mxCell id="339VbT9Xqeo3pvICzhQg-16" value="" style="group" parent="1" vertex="1" connectable="0">
          <mxGeometry x="110" y="1300" width="110" height="110" as="geometry" />
        </mxCell>
        <mxCell id="339VbT9Xqeo3pvICzhQg-17" value="" style="ellipse;whiteSpace=wrap;html=1;aspect=fixed;" parent="339VbT9Xqeo3pvICzhQg-16" vertex="1">
          <mxGeometry width="110" height="110" as="geometry" />
        </mxCell>
        <mxCell id="339VbT9Xqeo3pvICzhQg-18" value="생성&lt;br&gt;완료" style="ellipse;whiteSpace=wrap;html=1;aspect=fixed;" parent="339VbT9Xqeo3pvICzhQg-16" vertex="1">
          <mxGeometry x="15" y="15" width="80" height="80" as="geometry" />
        </mxCell>
        <mxCell id="339VbT9Xqeo3pvICzhQg-20" value="Text" style="text;html=1;strokeColor=none;fillColor=none;align=center;verticalAlign=middle;whiteSpace=wrap;rounded=0;" parent="1" vertex="1">
          <mxGeometry x="380" y="860" width="60" height="30" as="geometry" />
        </mxCell>
        <mxCell id="339VbT9Xqeo3pvICzhQg-22" value="" style="group" parent="1" vertex="1" connectable="0">
          <mxGeometry x="340" y="759" width="760" height="660" as="geometry" />
        </mxCell>
        <mxCell id="339VbT9Xqeo3pvICzhQg-23" value="" style="group" parent="339VbT9Xqeo3pvICzhQg-22" vertex="1" connectable="0">
          <mxGeometry y="89" width="760" height="580" as="geometry" />
        </mxCell>
        <mxCell id="339VbT9Xqeo3pvICzhQg-19" value="" style="shape=process;whiteSpace=wrap;html=1;backgroundOutline=1;size=0.0375;" parent="339VbT9Xqeo3pvICzhQg-23" vertex="1">
          <mxGeometry width="760.0000000000001" height="554.9640287769784" as="geometry" />
        </mxCell>
        <mxCell id="339VbT9Xqeo3pvICzhQg-21" value="render" style="text;html=1;align=center;verticalAlign=middle;resizable=0;points=[];autosize=1;strokeColor=none;fillColor=none;" parent="339VbT9Xqeo3pvICzhQg-23" vertex="1">
          <mxGeometry x="38.00000000000001" y="18.195541927114046" width="60" height="30" as="geometry" />
        </mxCell>
        <mxCell id="-yMm5iQ5VptiepZ6VYrb-73" value="" style="group" parent="339VbT9Xqeo3pvICzhQg-23" vertex="1" connectable="0">
          <mxGeometry x="78.96103896103897" y="276.08000000000004" width="602.077922077922" height="105.5368" as="geometry" />
        </mxCell>
        <mxCell id="-yMm5iQ5VptiepZ6VYrb-74" value="" style="group" parent="-yMm5iQ5VptiepZ6VYrb-73" vertex="1" connectable="0">
          <mxGeometry width="602.077922077922" height="105.53679999999999" as="geometry" />
        </mxCell>
        <mxCell id="-yMm5iQ5VptiepZ6VYrb-75" value="Reveiwinput이 true 일때 렌더링(Booklist에서 책이 선택되면 true값 전달)" style="shape=process;whiteSpace=wrap;html=1;backgroundOutline=1;size=0.0375;" parent="-yMm5iQ5VptiepZ6VYrb-74" vertex="1">
          <mxGeometry width="602.077922077922" height="77.33333333333333" as="geometry" />
        </mxCell>
        <mxCell id="-yMm5iQ5VptiepZ6VYrb-76" value="BookReview" style="text;html=1;align=center;verticalAlign=middle;resizable=0;points=[];autosize=1;strokeColor=none;fillColor=none;" parent="-yMm5iQ5VptiepZ6VYrb-74" vertex="1">
          <mxGeometry x="14.311688311688316" y="3.3108608090576714" width="90" height="30" as="geometry" />
        </mxCell>
        <mxCell id="-yMm5iQ5VptiepZ6VYrb-77" value="bookHistory={history}" style="shape=process;whiteSpace=wrap;html=1;backgroundOutline=1;size=0.0375;" parent="339VbT9Xqeo3pvICzhQg-23" vertex="1">
          <mxGeometry x="78.96103896103897" y="384.3466666666667" width="602.077922077922" height="77.33333333333333" as="geometry" />
        </mxCell>
        <mxCell id="-yMm5iQ5VptiepZ6VYrb-78" value="BookHistory" style="text;html=1;align=center;verticalAlign=middle;resizable=0;points=[];autosize=1;strokeColor=none;fillColor=none;" parent="339VbT9Xqeo3pvICzhQg-23" vertex="1">
          <mxGeometry x="97.22077922077922" y="392.0809941423911" width="90" height="30" as="geometry" />
        </mxCell>
        <mxCell id="-yMm5iQ5VptiepZ6VYrb-57" value="" style="group" parent="339VbT9Xqeo3pvICzhQg-23" vertex="1" connectable="0">
          <mxGeometry x="78.96103896103897" y="170.54653333333334" width="602.077922077922" height="105.5368" as="geometry" />
        </mxCell>
        <mxCell id="-yMm5iQ5VptiepZ6VYrb-58" value="" style="group" parent="-yMm5iQ5VptiepZ6VYrb-57" vertex="1" connectable="0">
          <mxGeometry width="602.077922077922" height="105.53679999999999" as="geometry" />
        </mxCell>
        <mxCell id="-yMm5iQ5VptiepZ6VYrb-59" value="BookSelect ={BookSelect}" style="shape=process;whiteSpace=wrap;html=1;backgroundOutline=1;size=0.0375;" parent="-yMm5iQ5VptiepZ6VYrb-58" vertex="1">
          <mxGeometry width="602.077922077922" height="77.33333333333333" as="geometry" />
        </mxCell>
        <mxCell id="-yMm5iQ5VptiepZ6VYrb-60" value="BookReading" style="text;html=1;align=center;verticalAlign=middle;resizable=0;points=[];autosize=1;strokeColor=none;fillColor=none;" parent="-yMm5iQ5VptiepZ6VYrb-58" vertex="1">
          <mxGeometry x="9.376623376623382" y="3.3108608090576714" width="100" height="30" as="geometry" />
        </mxCell>
        <mxCell id="-yMm5iQ5VptiepZ6VYrb-69" value="" style="group" parent="339VbT9Xqeo3pvICzhQg-23" vertex="1" connectable="0">
          <mxGeometry x="74.00103896103894" y="62.003200000000106" width="602.077922077922" height="105.5368" as="geometry" />
        </mxCell>
        <mxCell id="-yMm5iQ5VptiepZ6VYrb-70" value="" style="group" parent="-yMm5iQ5VptiepZ6VYrb-69" vertex="1" connectable="0">
          <mxGeometry width="602.077922077922" height="105.53679999999999" as="geometry" />
        </mxCell>
        <mxCell id="-yMm5iQ5VptiepZ6VYrb-71" value="handleClick={this.handleChildClick}&amp;nbsp;" style="shape=process;whiteSpace=wrap;html=1;backgroundOutline=1;size=0.0375;" parent="-yMm5iQ5VptiepZ6VYrb-70" vertex="1">
          <mxGeometry width="602.077922077922" height="77.33333333333333" as="geometry" />
        </mxCell>
        <mxCell id="-yMm5iQ5VptiepZ6VYrb-72" value="Booklist" style="text;html=1;align=center;verticalAlign=middle;resizable=0;points=[];autosize=1;strokeColor=none;fillColor=none;" parent="-yMm5iQ5VptiepZ6VYrb-70" vertex="1">
          <mxGeometry x="11.036623376623382" y="3.3108608090576714" width="70" height="30" as="geometry" />
        </mxCell>
        <mxCell id="339VbT9Xqeo3pvICzhQg-24" value="" style="rounded=1;whiteSpace=wrap;html=1;" parent="1" vertex="1">
          <mxGeometry x="-1660" y="-200" width="1200" height="890" as="geometry" />
        </mxCell>
        <mxCell id="339VbT9Xqeo3pvICzhQg-25" value="" style="rounded=0;whiteSpace=wrap;html=1;" parent="1" vertex="1">
          <mxGeometry x="-1540" y="-220" width="120" height="60" as="geometry" />
        </mxCell>
        <mxCell id="339VbT9Xqeo3pvICzhQg-26" value="&lt;font style=&quot;font-size: 24px;&quot;&gt;로그인&lt;/font&gt;" style="text;html=1;strokeColor=none;fillColor=none;align=center;verticalAlign=middle;whiteSpace=wrap;rounded=0;" parent="1" vertex="1">
          <mxGeometry x="-1160" y="-260" width="140" height="60" as="geometry" />
        </mxCell>
        <mxCell id="339VbT9Xqeo3pvICzhQg-27" value="" style="endArrow=classic;html=1;rounded=0;" parent="1" edge="1">
          <mxGeometry width="50" height="50" relative="1" as="geometry">
            <mxPoint x="-1490" y="-55" as="sourcePoint" />
            <mxPoint x="-1490" y="545" as="targetPoint" />
          </mxGeometry>
        </mxCell>
        <mxCell id="339VbT9Xqeo3pvICzhQg-28" value="" style="group" parent="1" vertex="1" connectable="0">
          <mxGeometry x="-1550" y="-145" width="110" height="110" as="geometry" />
        </mxCell>
        <mxCell id="339VbT9Xqeo3pvICzhQg-29" value="" style="ellipse;whiteSpace=wrap;html=1;aspect=fixed;" parent="339VbT9Xqeo3pvICzhQg-28" vertex="1">
          <mxGeometry width="110" height="110" as="geometry" />
        </mxCell>
        <mxCell id="339VbT9Xqeo3pvICzhQg-30" value="생성" style="ellipse;whiteSpace=wrap;html=1;aspect=fixed;" parent="339VbT9Xqeo3pvICzhQg-28" vertex="1">
          <mxGeometry x="15" y="15" width="80" height="80" as="geometry" />
        </mxCell>
        <mxCell id="339VbT9Xqeo3pvICzhQg-31" value="" style="group" parent="1" vertex="1" connectable="0">
          <mxGeometry x="-1550" y="550" width="110" height="110" as="geometry" />
        </mxCell>
        <mxCell id="339VbT9Xqeo3pvICzhQg-32" value="" style="ellipse;whiteSpace=wrap;html=1;aspect=fixed;" parent="339VbT9Xqeo3pvICzhQg-31" vertex="1">
          <mxGeometry width="110" height="110" as="geometry" />
        </mxCell>
        <mxCell id="339VbT9Xqeo3pvICzhQg-33" value="생성&lt;br&gt;완료" style="ellipse;whiteSpace=wrap;html=1;aspect=fixed;" parent="339VbT9Xqeo3pvICzhQg-31" vertex="1">
          <mxGeometry x="15" y="15" width="80" height="80" as="geometry" />
        </mxCell>
        <mxCell id="339VbT9Xqeo3pvICzhQg-34" value="Text" style="text;html=1;strokeColor=none;fillColor=none;align=center;verticalAlign=middle;whiteSpace=wrap;rounded=0;" parent="1" vertex="1">
          <mxGeometry x="-1370" y="130" width="60" height="30" as="geometry" />
        </mxCell>
        <mxCell id="339VbT9Xqeo3pvICzhQg-35" value="x`" style="group" parent="1" vertex="1" connectable="0">
          <mxGeometry x="-1380" y="20" width="460" height="330" as="geometry" />
        </mxCell>
        <mxCell id="339VbT9Xqeo3pvICzhQg-36" value="" style="group" parent="339VbT9Xqeo3pvICzhQg-35" vertex="1" connectable="0">
          <mxGeometry width="459.99999999999994" height="330" as="geometry" />
        </mxCell>
        <mxCell id="339VbT9Xqeo3pvICzhQg-37" value="" style="shape=process;whiteSpace=wrap;html=1;backgroundOutline=1;size=0.0375;" parent="339VbT9Xqeo3pvICzhQg-36" vertex="1">
          <mxGeometry width="459.99999999999994" height="330" as="geometry" />
        </mxCell>
        <mxCell id="339VbT9Xqeo3pvICzhQg-38" value="render" style="text;html=1;align=center;verticalAlign=middle;resizable=0;points=[];autosize=1;strokeColor=none;fillColor=none;" parent="339VbT9Xqeo3pvICzhQg-36" vertex="1">
          <mxGeometry x="23" y="10.819672131147541" width="60" height="30" as="geometry" />
        </mxCell>
        <mxCell id="339VbT9Xqeo3pvICzhQg-39" value="" style="endArrow=classic;html=1;rounded=0;" parent="1" edge="1">
          <mxGeometry width="50" height="50" relative="1" as="geometry">
            <mxPoint x="-580" y="-60" as="sourcePoint" />
            <mxPoint x="-580" y="540" as="targetPoint" />
          </mxGeometry>
        </mxCell>
        <mxCell id="339VbT9Xqeo3pvICzhQg-40" value="" style="group" parent="1" vertex="1" connectable="0">
          <mxGeometry x="-640" y="545" width="110" height="110" as="geometry" />
        </mxCell>
        <mxCell id="339VbT9Xqeo3pvICzhQg-41" value="" style="ellipse;whiteSpace=wrap;html=1;aspect=fixed;" parent="339VbT9Xqeo3pvICzhQg-40" vertex="1">
          <mxGeometry width="110" height="110" as="geometry" />
        </mxCell>
        <mxCell id="339VbT9Xqeo3pvICzhQg-42" value="갱신완료" style="ellipse;whiteSpace=wrap;html=1;aspect=fixed;" parent="339VbT9Xqeo3pvICzhQg-40" vertex="1">
          <mxGeometry x="15" y="15" width="80" height="80" as="geometry" />
        </mxCell>
        <mxCell id="339VbT9Xqeo3pvICzhQg-45" value="" style="endArrow=classic;html=1;rounded=0;" parent="1" edge="1">
          <mxGeometry width="50" height="50" relative="1" as="geometry">
            <mxPoint x="1185" y="677.5" as="sourcePoint" />
            <mxPoint x="1185" y="1277.5" as="targetPoint" />
          </mxGeometry>
        </mxCell>
        <mxCell id="339VbT9Xqeo3pvICzhQg-46" value="" style="group" parent="1" vertex="1" connectable="0">
          <mxGeometry x="1131" y="1280" width="110" height="110" as="geometry" />
        </mxCell>
        <mxCell id="339VbT9Xqeo3pvICzhQg-47" value="" style="ellipse;whiteSpace=wrap;html=1;aspect=fixed;" parent="339VbT9Xqeo3pvICzhQg-46" vertex="1">
          <mxGeometry width="110" height="110" as="geometry" />
        </mxCell>
        <mxCell id="339VbT9Xqeo3pvICzhQg-48" value="갱신완료" style="ellipse;whiteSpace=wrap;html=1;aspect=fixed;" parent="339VbT9Xqeo3pvICzhQg-46" vertex="1">
          <mxGeometry x="15" y="15" width="80" height="80" as="geometry" />
        </mxCell>
        <mxCell id="339VbT9Xqeo3pvICzhQg-49" value="" style="endArrow=classic;html=1;rounded=0;jumpSize=0;" parent="1" edge="1">
          <mxGeometry width="50" height="50" relative="1" as="geometry">
            <mxPoint x="163" y="981" as="sourcePoint" />
            <mxPoint x="330" y="980" as="targetPoint" />
          </mxGeometry>
        </mxCell>
        <mxCell id="339VbT9Xqeo3pvICzhQg-74" value="" style="endArrow=classic;html=1;rounded=0;entryX=1;entryY=0.25;entryDx=0;entryDy=0;" parent="1" target="339VbT9Xqeo3pvICzhQg-19" edge="1">
          <mxGeometry width="50" height="50" relative="1" as="geometry">
            <mxPoint x="1180" y="986" as="sourcePoint" />
            <mxPoint x="1250" y="970" as="targetPoint" />
            <Array as="points">
              <mxPoint x="1170" y="986" />
            </Array>
          </mxGeometry>
        </mxCell>
        <mxCell id="339VbT9Xqeo3pvICzhQg-76" value="갱신" style="rounded=0;whiteSpace=wrap;html=1;" parent="1" vertex="1">
          <mxGeometry x="1121" y="620" width="120" height="60" as="geometry" />
        </mxCell>
        <mxCell id="-yMm5iQ5VptiepZ6VYrb-1" value="" style="rounded=1;whiteSpace=wrap;html=1;" parent="1" vertex="1">
          <mxGeometry x="-1650" y="840" width="1220" height="920" as="geometry" />
        </mxCell>
        <mxCell id="-yMm5iQ5VptiepZ6VYrb-2" value="BookSelect" style="rounded=0;whiteSpace=wrap;html=1;" parent="1" vertex="1">
          <mxGeometry x="-1550" y="820" width="190" height="60" as="geometry" />
        </mxCell>
        <mxCell id="-yMm5iQ5VptiepZ6VYrb-3" value="&lt;span style=&quot;font-size: 18px;&quot;&gt;BookReading.js&lt;/span&gt;" style="text;html=1;strokeColor=none;fillColor=none;align=center;verticalAlign=middle;whiteSpace=wrap;rounded=0;" parent="1" vertex="1">
          <mxGeometry x="-1090" y="780" width="140" height="60" as="geometry" />
        </mxCell>
        <mxCell id="-yMm5iQ5VptiepZ6VYrb-4" value="" style="endArrow=classic;html=1;rounded=0;" parent="1" edge="1">
          <mxGeometry width="50" height="50" relative="1" as="geometry">
            <mxPoint x="-1480" y="985" as="sourcePoint" />
            <mxPoint x="-1480" y="1585" as="targetPoint" />
          </mxGeometry>
        </mxCell>
        <mxCell id="-yMm5iQ5VptiepZ6VYrb-5" value="" style="group" parent="1" vertex="1" connectable="0">
          <mxGeometry x="-1540" y="895" width="110" height="110" as="geometry" />
        </mxCell>
        <mxCell id="-yMm5iQ5VptiepZ6VYrb-6" value="" style="ellipse;whiteSpace=wrap;html=1;aspect=fixed;" parent="-yMm5iQ5VptiepZ6VYrb-5" vertex="1">
          <mxGeometry width="110" height="110" as="geometry" />
        </mxCell>
        <mxCell id="-yMm5iQ5VptiepZ6VYrb-7" value="생성" style="ellipse;whiteSpace=wrap;html=1;aspect=fixed;" parent="-yMm5iQ5VptiepZ6VYrb-5" vertex="1">
          <mxGeometry x="15" y="15" width="80" height="80" as="geometry" />
        </mxCell>
        <mxCell id="-yMm5iQ5VptiepZ6VYrb-8" value="" style="group" parent="1" vertex="1" connectable="0">
          <mxGeometry x="-1540" y="1590" width="110" height="110" as="geometry" />
        </mxCell>
        <mxCell id="-yMm5iQ5VptiepZ6VYrb-9" value="" style="ellipse;whiteSpace=wrap;html=1;aspect=fixed;" parent="-yMm5iQ5VptiepZ6VYrb-8" vertex="1">
          <mxGeometry width="110" height="110" as="geometry" />
        </mxCell>
        <mxCell id="-yMm5iQ5VptiepZ6VYrb-10" value="생성&lt;br&gt;완료" style="ellipse;whiteSpace=wrap;html=1;aspect=fixed;" parent="-yMm5iQ5VptiepZ6VYrb-8" vertex="1">
          <mxGeometry x="15" y="15" width="80" height="80" as="geometry" />
        </mxCell>
        <mxCell id="-yMm5iQ5VptiepZ6VYrb-12" value="" style="group" parent="1" vertex="1" connectable="0">
          <mxGeometry x="-1410" y="930" width="760" height="670" as="geometry" />
        </mxCell>
        <mxCell id="-yMm5iQ5VptiepZ6VYrb-13" value="" style="group" parent="-yMm5iQ5VptiepZ6VYrb-12" vertex="1" connectable="0">
          <mxGeometry y="40" width="760" height="670" as="geometry" />
        </mxCell>
        <mxCell id="-yMm5iQ5VptiepZ6VYrb-14" value="이전에 선택된 책의 인덱스값이 다르면&lt;br&gt;radomQuto()함수 실행" style="shape=process;whiteSpace=wrap;html=1;backgroundOutline=1;size=0.0375;" parent="-yMm5iQ5VptiepZ6VYrb-13" vertex="1">
          <mxGeometry y="60" width="230" height="110" as="geometry" />
        </mxCell>
        <mxCell id="-yMm5iQ5VptiepZ6VYrb-110" value="componentDidUpdate" style="text;html=1;align=center;verticalAlign=middle;resizable=0;points=[];autosize=1;strokeColor=none;fillColor=none;" parent="-yMm5iQ5VptiepZ6VYrb-13" vertex="1">
          <mxGeometry x="10.000000000000057" y="59.995541927114076" width="140" height="30" as="geometry" />
        </mxCell>
        <mxCell id="-yMm5iQ5VptiepZ6VYrb-129" value="" style="endArrow=classic;html=1;rounded=0;" parent="-yMm5iQ5VptiepZ6VYrb-13" edge="1">
          <mxGeometry width="50" height="50" relative="1" as="geometry">
            <mxPoint x="840" y="390" as="sourcePoint" />
            <mxPoint x="490" y="390" as="targetPoint" />
          </mxGeometry>
        </mxCell>
        <mxCell id="-yMm5iQ5VptiepZ6VYrb-16" value="" style="endArrow=classic;html=1;rounded=0;" parent="1" edge="1">
          <mxGeometry width="50" height="50" relative="1" as="geometry">
            <mxPoint x="-570" y="980" as="sourcePoint" />
            <mxPoint x="-570" y="1580" as="targetPoint" />
          </mxGeometry>
        </mxCell>
        <mxCell id="-yMm5iQ5VptiepZ6VYrb-17" value="" style="group" parent="1" vertex="1" connectable="0">
          <mxGeometry x="-630" y="1585" width="110" height="110" as="geometry" />
        </mxCell>
        <mxCell id="-yMm5iQ5VptiepZ6VYrb-18" value="" style="ellipse;whiteSpace=wrap;html=1;aspect=fixed;" parent="-yMm5iQ5VptiepZ6VYrb-17" vertex="1">
          <mxGeometry width="110" height="110" as="geometry" />
        </mxCell>
        <mxCell id="-yMm5iQ5VptiepZ6VYrb-19" value="갱신완료" style="ellipse;whiteSpace=wrap;html=1;aspect=fixed;" parent="-yMm5iQ5VptiepZ6VYrb-17" vertex="1">
          <mxGeometry x="15" y="15" width="80" height="80" as="geometry" />
        </mxCell>
        <mxCell id="-yMm5iQ5VptiepZ6VYrb-20" value="" style="endArrow=classic;html=1;rounded=0;entryX=0;entryY=0.402;entryDx=0;entryDy=0;entryPerimeter=0;" parent="1" edge="1">
          <mxGeometry width="50" height="50" relative="1" as="geometry">
            <mxPoint x="-1480" y="1092.57" as="sourcePoint" />
            <mxPoint x="-1410" y="1091.57" as="targetPoint" />
          </mxGeometry>
        </mxCell>
        <mxCell id="-yMm5iQ5VptiepZ6VYrb-99" value="" style="group" parent="1" vertex="1" connectable="0">
          <mxGeometry x="280.00103896103894" y="609.9964" width="602.077922077922" height="140" as="geometry" />
        </mxCell>
        <mxCell id="-yMm5iQ5VptiepZ6VYrb-100" value="" style="group" parent="-yMm5iQ5VptiepZ6VYrb-99" vertex="1" connectable="0">
          <mxGeometry width="602.077922077922" height="140" as="geometry" />
        </mxCell>
        <mxCell id="-yMm5iQ5VptiepZ6VYrb-101" value="&lt;div style=&quot;font-size: 14px;&quot;&gt;&lt;font style=&quot;font-size: 14px;&quot;&gt;&lt;br&gt;&lt;/font&gt;&lt;/div&gt;&lt;div style=&quot;font-size: 14px;&quot;&gt;&lt;font style=&quot;font-size: 14px;&quot;&gt;&amp;nbsp; constructor&lt;/font&gt;&lt;/div&gt;&lt;div style=&quot;font-size: 14px;&quot;&gt;&lt;span style=&quot;background-color: initial;&quot;&gt;&lt;br&gt;&lt;/span&gt;&lt;/div&gt;&lt;div style=&quot;font-size: 14px;&quot;&gt;&lt;span style=&quot;background-color: initial;&quot;&gt;&amp;nbsp; &amp;nbsp; &amp;nbsp; BookSelect: null,&lt;/span&gt;&lt;br&gt;&lt;/div&gt;&lt;div style=&quot;font-size: 14px;&quot;&gt;&lt;font style=&quot;font-size: 14px;&quot;&gt;&amp;nbsp; &amp;nbsp; &amp;nbsp; ReviewInput: false,&lt;/font&gt;&lt;/div&gt;&lt;div style=&quot;font-size: 14px;&quot;&gt;&lt;font style=&quot;font-size: 14px;&quot;&gt;&amp;nbsp; &amp;nbsp; &amp;nbsp; booktitle: &#39;&#39;,&lt;/font&gt;&lt;/div&gt;&lt;div style=&quot;font-size: 14px;&quot;&gt;&lt;font style=&quot;font-size: 14px;&quot;&gt;&amp;nbsp; &amp;nbsp; &amp;nbsp; history: [],&lt;/font&gt;&lt;/div&gt;&lt;div style=&quot;font-size: 14px;&quot;&gt;&lt;br&gt;&lt;/div&gt;" style="shape=process;whiteSpace=wrap;html=1;backgroundOutline=1;size=0.0375;" parent="-yMm5iQ5VptiepZ6VYrb-100" vertex="1">
          <mxGeometry x="-20" y="10" width="220" height="120" as="geometry" />
        </mxCell>
        <mxCell id="-yMm5iQ5VptiepZ6VYrb-105" value="" style="endArrow=classic;html=1;rounded=0;" parent="1" edge="1">
          <mxGeometry width="50" height="50" relative="1" as="geometry">
            <mxPoint x="170" y="690" as="sourcePoint" />
            <mxPoint x="260" y="690" as="targetPoint" />
          </mxGeometry>
        </mxCell>
        <mxCell id="-yMm5iQ5VptiepZ6VYrb-106" value="" style="group" parent="1" vertex="1" connectable="0">
          <mxGeometry x="510" y="610" width="602.08" height="240" as="geometry" />
        </mxCell>
        <mxCell id="-yMm5iQ5VptiepZ6VYrb-107" value="&lt;div style=&quot;font-size: 14px;&quot;&gt;&lt;div&gt;handleChildClick = (index, title) =&amp;gt; {&lt;/div&gt;&lt;div&gt;&amp;nbsp; &amp;nbsp; const { history } = this.state;&lt;/div&gt;&lt;div&gt;&amp;nbsp; &amp;nbsp; const updatedHistory = [...history, title];&amp;nbsp; &amp;nbsp; &amp;nbsp;this.setState({&lt;/div&gt;&lt;div&gt;&amp;nbsp; &amp;nbsp; &amp;nbsp; BookSelect: index,&lt;/div&gt;&lt;div&gt;&amp;nbsp; &amp;nbsp; &amp;nbsp; ReviewInput: true,&lt;/div&gt;&lt;div&gt;&amp;nbsp; &amp;nbsp; &amp;nbsp; booktitle: title,&lt;/div&gt;&lt;div&gt;&amp;nbsp; &amp;nbsp; &amp;nbsp; history: updatedHistory,/&lt;/div&gt;&lt;div&gt;&amp;nbsp; &amp;nbsp; });&lt;/div&gt;&lt;div&gt;&amp;nbsp; };&lt;/div&gt;&lt;/div&gt;" style="shape=process;whiteSpace=wrap;html=1;backgroundOutline=1;size=0.0375;" parent="-yMm5iQ5VptiepZ6VYrb-106" vertex="1">
          <mxGeometry x="-20.000069025021574" y="17.142857142857142" width="220.00075927523733" height="205.7142857142857" as="geometry" />
        </mxCell>
        <mxCell id="-yMm5iQ5VptiepZ6VYrb-108" value="" style="endArrow=classic;html=1;rounded=0;entryX=0;entryY=0.75;entryDx=0;entryDy=0;" parent="1" target="-yMm5iQ5VptiepZ6VYrb-107" edge="1">
          <mxGeometry width="50" height="50" relative="1" as="geometry">
            <mxPoint x="170" y="781" as="sourcePoint" />
            <mxPoint x="250" y="780" as="targetPoint" />
          </mxGeometry>
        </mxCell>
        <mxCell id="-yMm5iQ5VptiepZ6VYrb-109" value="갱신" style="rounded=0;whiteSpace=wrap;html=1;" parent="1" vertex="1">
          <mxGeometry x="-640" y="920" width="120" height="60" as="geometry" />
        </mxCell>
        <mxCell id="-yMm5iQ5VptiepZ6VYrb-115" value="" style="endArrow=classic;html=1;rounded=0;entryX=0;entryY=0.402;entryDx=0;entryDy=0;entryPerimeter=0;" parent="1" edge="1">
          <mxGeometry width="50" height="50" relative="1" as="geometry">
            <mxPoint x="-1480" y="1181" as="sourcePoint" />
            <mxPoint x="-1410" y="1180" as="targetPoint" />
          </mxGeometry>
        </mxCell>
        <mxCell id="-yMm5iQ5VptiepZ6VYrb-116" value="" style="group" parent="1" vertex="1" connectable="0">
          <mxGeometry x="-1450" y="1224.72" width="530" height="260.57" as="geometry" />
        </mxCell>
        <mxCell id="-yMm5iQ5VptiepZ6VYrb-117" value="" style="group" parent="-yMm5iQ5VptiepZ6VYrb-116" vertex="1" connectable="0">
          <mxGeometry width="530" height="260.19921611703325" as="geometry" />
        </mxCell>
        <mxCell id="-yMm5iQ5VptiepZ6VYrb-118" value="&lt;font style=&quot;font-size: 19px;&quot;&gt;변경된 state.Quoto 값 렌더링&lt;/font&gt;" style="shape=process;whiteSpace=wrap;html=1;backgroundOutline=1;size=0.0375;" parent="-yMm5iQ5VptiepZ6VYrb-117" vertex="1">
          <mxGeometry x="38.69" y="53.94315230426273" width="483.62884057971013" height="196.61905580843597" as="geometry" />
        </mxCell>
        <mxCell id="-yMm5iQ5VptiepZ6VYrb-120" value="render()" style="text;html=1;align=center;verticalAlign=middle;resizable=0;points=[];autosize=1;strokeColor=none;fillColor=none;" parent="-yMm5iQ5VptiepZ6VYrb-117" vertex="1">
          <mxGeometry x="63.00219671052633" y="57.116407365655654" width="70" height="30" as="geometry" />
        </mxCell>
        <mxCell id="-yMm5iQ5VptiepZ6VYrb-111" value="" style="group" parent="1" vertex="1" connectable="0">
          <mxGeometry x="-1410" y="1130" width="234.17" height="144.12" as="geometry" />
        </mxCell>
        <mxCell id="-yMm5iQ5VptiepZ6VYrb-112" value="" style="group" parent="-yMm5iQ5VptiepZ6VYrb-111" vertex="1" connectable="0">
          <mxGeometry y="6.453134328358209" width="234.16999999999993" height="144.12" as="geometry" />
        </mxCell>
        <mxCell id="-yMm5iQ5VptiepZ6VYrb-113" value="랜덤으로 배열값 가져와서&amp;nbsp;&lt;br&gt;state값 변경" style="shape=process;whiteSpace=wrap;html=1;backgroundOutline=1;size=0.0375;" parent="-yMm5iQ5VptiepZ6VYrb-112" vertex="1">
          <mxGeometry y="12.906268656716419" width="228.00763157894738" height="118.30746268656716" as="geometry" />
        </mxCell>
        <mxCell id="-yMm5iQ5VptiepZ6VYrb-114" value="radomQuto()&lt;br&gt;" style="text;html=1;align=center;verticalAlign=middle;resizable=0;points=[];autosize=1;strokeColor=none;fillColor=none;" parent="-yMm5iQ5VptiepZ6VYrb-112" vertex="1">
          <mxGeometry x="10.784144736842123" y="12.905309705277135" width="90" height="30" as="geometry" />
        </mxCell>
        <mxCell id="-yMm5iQ5VptiepZ6VYrb-121" value="" style="endArrow=classic;html=1;rounded=0;entryX=0;entryY=0.402;entryDx=0;entryDy=0;entryPerimeter=0;" parent="1" edge="1">
          <mxGeometry width="50" height="50" relative="1" as="geometry">
            <mxPoint x="-1480" y="1351" as="sourcePoint" />
            <mxPoint x="-1410" y="1350" as="targetPoint" />
          </mxGeometry>
        </mxCell>
        <mxCell id="-yMm5iQ5VptiepZ6VYrb-122" value="" style="group" parent="1" vertex="1" connectable="0">
          <mxGeometry x="-1147.08" y="920" width="227.08" height="140" as="geometry" />
        </mxCell>
        <mxCell id="-yMm5iQ5VptiepZ6VYrb-123" value="" style="group" parent="-yMm5iQ5VptiepZ6VYrb-122" vertex="1" connectable="0">
          <mxGeometry width="227.08" height="140" as="geometry" />
        </mxCell>
        <mxCell id="-yMm5iQ5VptiepZ6VYrb-124" value="&lt;div style=&quot;&quot;&gt;&lt;font style=&quot;font-size: 16px;&quot;&gt;constructor&lt;/font&gt;&lt;/div&gt;&lt;div style=&quot;&quot;&gt;&lt;font style=&quot;font-size: 16px;&quot;&gt;&amp;nbsp;this.state = { Quote: &#39;&#39; };&lt;/font&gt;&lt;br&gt;&lt;/div&gt;" style="shape=process;whiteSpace=wrap;html=1;backgroundOutline=1;size=0.0375;" parent="-yMm5iQ5VptiepZ6VYrb-123" vertex="1">
          <mxGeometry x="-7.54" y="10" width="227.54" height="120" as="geometry" />
        </mxCell>
        <mxCell id="-yMm5iQ5VptiepZ6VYrb-126" value="" style="endArrow=classic;html=1;rounded=0;entryX=0;entryY=0.75;entryDx=0;entryDy=0;" parent="1" target="-yMm5iQ5VptiepZ6VYrb-124" edge="1">
          <mxGeometry width="50" height="50" relative="1" as="geometry">
            <mxPoint x="-1480" y="1020" as="sourcePoint" />
            <mxPoint x="-1410" y="1019" as="targetPoint" />
          </mxGeometry>
        </mxCell>
        <mxCell id="-yMm5iQ5VptiepZ6VYrb-130" value="" style="rounded=1;whiteSpace=wrap;html=1;" parent="1" vertex="1">
          <mxGeometry x="-10" y="1740" width="1250" height="950" as="geometry" />
        </mxCell>
        <mxCell id="-yMm5iQ5VptiepZ6VYrb-131" value="BookSelect" style="rounded=0;whiteSpace=wrap;html=1;" parent="1" vertex="1">
          <mxGeometry x="90" y="1720" width="190" height="60" as="geometry" />
        </mxCell>
        <mxCell id="-yMm5iQ5VptiepZ6VYrb-132" value="&lt;span style=&quot;font-size: 18px;&quot;&gt;Booklist.js&lt;/span&gt;" style="text;html=1;strokeColor=none;fillColor=none;align=center;verticalAlign=middle;whiteSpace=wrap;rounded=0;" parent="1" vertex="1">
          <mxGeometry x="550" y="1680" width="140" height="60" as="geometry" />
        </mxCell>
        <mxCell id="-yMm5iQ5VptiepZ6VYrb-133" value="" style="endArrow=classic;html=1;rounded=0;" parent="1" edge="1">
          <mxGeometry width="50" height="50" relative="1" as="geometry">
            <mxPoint x="160" y="1885" as="sourcePoint" />
            <mxPoint x="160" y="2485" as="targetPoint" />
          </mxGeometry>
        </mxCell>
        <mxCell id="-yMm5iQ5VptiepZ6VYrb-134" value="" style="group" parent="1" vertex="1" connectable="0">
          <mxGeometry x="100" y="1795" width="110" height="110" as="geometry" />
        </mxCell>
        <mxCell id="-yMm5iQ5VptiepZ6VYrb-135" value="" style="ellipse;whiteSpace=wrap;html=1;aspect=fixed;" parent="-yMm5iQ5VptiepZ6VYrb-134" vertex="1">
          <mxGeometry width="110" height="110" as="geometry" />
        </mxCell>
        <mxCell id="-yMm5iQ5VptiepZ6VYrb-136" value="생성" style="ellipse;whiteSpace=wrap;html=1;aspect=fixed;" parent="-yMm5iQ5VptiepZ6VYrb-134" vertex="1">
          <mxGeometry x="15" y="15" width="80" height="80" as="geometry" />
        </mxCell>
        <mxCell id="-yMm5iQ5VptiepZ6VYrb-137" value="" style="group" parent="1" vertex="1" connectable="0">
          <mxGeometry x="100" y="2490" width="110" height="110" as="geometry" />
        </mxCell>
        <mxCell id="-yMm5iQ5VptiepZ6VYrb-138" value="" style="ellipse;whiteSpace=wrap;html=1;aspect=fixed;" parent="-yMm5iQ5VptiepZ6VYrb-137" vertex="1">
          <mxGeometry width="110" height="110" as="geometry" />
        </mxCell>
        <mxCell id="-yMm5iQ5VptiepZ6VYrb-139" value="생성&lt;br&gt;완료" style="ellipse;whiteSpace=wrap;html=1;aspect=fixed;" parent="-yMm5iQ5VptiepZ6VYrb-137" vertex="1">
          <mxGeometry x="15" y="15" width="80" height="80" as="geometry" />
        </mxCell>
        <mxCell id="-yMm5iQ5VptiepZ6VYrb-140" value="" style="group" parent="1" vertex="1" connectable="0">
          <mxGeometry x="230" y="1830" width="760" height="670" as="geometry" />
        </mxCell>
        <mxCell id="-yMm5iQ5VptiepZ6VYrb-141" value="" style="group" parent="-yMm5iQ5VptiepZ6VYrb-140" vertex="1" connectable="0">
          <mxGeometry y="40" width="760" height="670" as="geometry" />
        </mxCell>
        <mxCell id="-yMm5iQ5VptiepZ6VYrb-142" value="이전에 선택된 책의 인덱스값이 다르면&lt;br&gt;radomQuto()함수 실행" style="shape=process;whiteSpace=wrap;html=1;backgroundOutline=1;size=0.0375;" parent="-yMm5iQ5VptiepZ6VYrb-141" vertex="1">
          <mxGeometry y="60" width="230" height="110" as="geometry" />
        </mxCell>
        <mxCell id="-yMm5iQ5VptiepZ6VYrb-143" value="componentDidUpdate" style="text;html=1;align=center;verticalAlign=middle;resizable=0;points=[];autosize=1;strokeColor=none;fillColor=none;" parent="-yMm5iQ5VptiepZ6VYrb-141" vertex="1">
          <mxGeometry x="10.000000000000057" y="59.995541927114076" width="140" height="30" as="geometry" />
        </mxCell>
        <mxCell id="-yMm5iQ5VptiepZ6VYrb-144" value="" style="endArrow=classic;html=1;rounded=0;" parent="-yMm5iQ5VptiepZ6VYrb-141" edge="1">
          <mxGeometry width="50" height="50" relative="1" as="geometry">
            <mxPoint x="840" y="390" as="sourcePoint" />
            <mxPoint x="490" y="390" as="targetPoint" />
          </mxGeometry>
        </mxCell>
        <mxCell id="-yMm5iQ5VptiepZ6VYrb-145" value="" style="endArrow=classic;html=1;rounded=0;" parent="1" edge="1">
          <mxGeometry width="50" height="50" relative="1" as="geometry">
            <mxPoint x="1070" y="1880" as="sourcePoint" />
            <mxPoint x="1070" y="2480" as="targetPoint" />
          </mxGeometry>
        </mxCell>
        <mxCell id="-yMm5iQ5VptiepZ6VYrb-146" value="" style="group" parent="1" vertex="1" connectable="0">
          <mxGeometry x="1010" y="2485" width="110" height="110" as="geometry" />
        </mxCell>
        <mxCell id="-yMm5iQ5VptiepZ6VYrb-147" value="" style="ellipse;whiteSpace=wrap;html=1;aspect=fixed;" parent="-yMm5iQ5VptiepZ6VYrb-146" vertex="1">
          <mxGeometry width="110" height="110" as="geometry" />
        </mxCell>
        <mxCell id="-yMm5iQ5VptiepZ6VYrb-148" value="갱신완료" style="ellipse;whiteSpace=wrap;html=1;aspect=fixed;" parent="-yMm5iQ5VptiepZ6VYrb-146" vertex="1">
          <mxGeometry x="15" y="15" width="80" height="80" as="geometry" />
        </mxCell>
        <mxCell id="-yMm5iQ5VptiepZ6VYrb-150" value="" style="endArrow=classic;html=1;rounded=0;entryX=0;entryY=0.402;entryDx=0;entryDy=0;entryPerimeter=0;" parent="1" edge="1">
          <mxGeometry width="50" height="50" relative="1" as="geometry">
            <mxPoint x="160" y="1992.57" as="sourcePoint" />
            <mxPoint x="230" y="1991.57" as="targetPoint" />
          </mxGeometry>
        </mxCell>
        <mxCell id="-yMm5iQ5VptiepZ6VYrb-151" value="갱신" style="rounded=0;whiteSpace=wrap;html=1;" parent="1" vertex="1">
          <mxGeometry x="1000" y="1820" width="120" height="60" as="geometry" />
        </mxCell>
        <mxCell id="-yMm5iQ5VptiepZ6VYrb-152" value="" style="endArrow=classic;html=1;rounded=0;entryX=0;entryY=0.402;entryDx=0;entryDy=0;entryPerimeter=0;" parent="1" edge="1">
          <mxGeometry width="50" height="50" relative="1" as="geometry">
            <mxPoint x="160" y="2081" as="sourcePoint" />
            <mxPoint x="230" y="2080" as="targetPoint" />
          </mxGeometry>
        </mxCell>
        <mxCell id="-yMm5iQ5VptiepZ6VYrb-153" value="" style="group" parent="1" vertex="1" connectable="0">
          <mxGeometry x="190" y="2124.7200000000003" width="530" height="350" as="geometry" />
        </mxCell>
        <mxCell id="-yMm5iQ5VptiepZ6VYrb-154" value="" style="group" parent="-yMm5iQ5VptiepZ6VYrb-153" vertex="1" connectable="0">
          <mxGeometry width="530" height="350" as="geometry" />
        </mxCell>
        <mxCell id="-yMm5iQ5VptiepZ6VYrb-155" value="&lt;font style=&quot;font-size: 15px;&quot;&gt;map함수로 booklists 배열 요소 렌더링&lt;br&gt;렌더링되면 요소 하나하나마다hadleClick()함수 적용&lt;/font&gt;" style="shape=process;whiteSpace=wrap;html=1;backgroundOutline=1;size=0.0375;" parent="-yMm5iQ5VptiepZ6VYrb-154" vertex="1">
          <mxGeometry x="38.69" y="53.94" width="483.63" height="296.06" as="geometry" />
        </mxCell>
        <mxCell id="-yMm5iQ5VptiepZ6VYrb-156" value="render()" style="text;html=1;align=center;verticalAlign=middle;resizable=0;points=[];autosize=1;strokeColor=none;fillColor=none;" parent="-yMm5iQ5VptiepZ6VYrb-154" vertex="1">
          <mxGeometry x="63.00219671052633" y="57.116407365655654" width="70" height="30" as="geometry" />
        </mxCell>
        <mxCell id="9ZKyDkTpBno9s-9ZtQ4g-1" value="BookSearch&amp;nbsp;booklists={this.booklists} updateBook={this.updateBook} 컴포넌트에 전달하고 받기" style="shape=process;whiteSpace=wrap;html=1;backgroundOutline=1;size=0.07142857142857142;" vertex="1" parent="-yMm5iQ5VptiepZ6VYrb-154">
          <mxGeometry x="70.5" y="87.12" width="420" height="74.72" as="geometry" />
        </mxCell>
        <mxCell id="9ZKyDkTpBno9s-9ZtQ4g-3" value="&amp;lt;Recommend /&amp;gt;" style="shape=process;whiteSpace=wrap;html=1;backgroundOutline=1;size=0.07142857142857142;" vertex="1" parent="-yMm5iQ5VptiepZ6VYrb-154">
          <mxGeometry x="70.5" y="245.27999999999975" width="420" height="74.72" as="geometry" />
        </mxCell>
        <mxCell id="-yMm5iQ5VptiepZ6VYrb-157" value="" style="group" parent="1" vertex="1" connectable="0">
          <mxGeometry x="230" y="2030" width="234.17" height="144.12" as="geometry" />
        </mxCell>
        <mxCell id="-yMm5iQ5VptiepZ6VYrb-158" value="" style="group" parent="-yMm5iQ5VptiepZ6VYrb-157" vertex="1" connectable="0">
          <mxGeometry y="6.453134328358209" width="234.16999999999993" height="144.12" as="geometry" />
        </mxCell>
        <mxCell id="-yMm5iQ5VptiepZ6VYrb-159" value="해당하는 책을 누르면 해당하는 인덱스값 props로 콜백" style="shape=process;whiteSpace=wrap;html=1;backgroundOutline=1;size=0.0375;" parent="-yMm5iQ5VptiepZ6VYrb-158" vertex="1">
          <mxGeometry y="12.906268656716419" width="228.00763157894738" height="118.30746268656716" as="geometry" />
        </mxCell>
        <mxCell id="-yMm5iQ5VptiepZ6VYrb-160" value="handleClick()" style="text;html=1;align=center;verticalAlign=middle;resizable=0;points=[];autosize=1;strokeColor=none;fillColor=none;" parent="-yMm5iQ5VptiepZ6VYrb-158" vertex="1">
          <mxGeometry x="10.784144736842123" y="12.905309705277135" width="90" height="30" as="geometry" />
        </mxCell>
        <mxCell id="-yMm5iQ5VptiepZ6VYrb-161" value="" style="endArrow=classic;html=1;rounded=0;entryX=0;entryY=0.402;entryDx=0;entryDy=0;entryPerimeter=0;" parent="1" edge="1">
          <mxGeometry width="50" height="50" relative="1" as="geometry">
            <mxPoint x="160" y="2251" as="sourcePoint" />
            <mxPoint x="230" y="2250" as="targetPoint" />
          </mxGeometry>
        </mxCell>
        <mxCell id="-yMm5iQ5VptiepZ6VYrb-162" value="" style="group" parent="1" vertex="1" connectable="0">
          <mxGeometry x="492.9200000000001" y="1820" width="227.08" height="140" as="geometry" />
        </mxCell>
        <mxCell id="-yMm5iQ5VptiepZ6VYrb-163" value="" style="group" parent="-yMm5iQ5VptiepZ6VYrb-162" vertex="1" connectable="0">
          <mxGeometry width="227.08" height="140" as="geometry" />
        </mxCell>
        <mxCell id="-yMm5iQ5VptiepZ6VYrb-164" value="&lt;div style=&quot;&quot;&gt;&lt;font style=&quot;font-size: 16px;&quot;&gt;constructor&lt;/font&gt;&lt;/div&gt;&lt;div style=&quot;&quot;&gt;&lt;font style=&quot;font-size: 16px;&quot;&gt;this.state = {&lt;/font&gt;&lt;/div&gt;&lt;div style=&quot;&quot;&gt;&lt;font style=&quot;font-size: 16px;&quot;&gt;&amp;nbsp;list: this.booklists&amp;nbsp;&lt;/font&gt;&lt;/div&gt;&lt;div style=&quot;&quot;&gt;&lt;font style=&quot;font-size: 16px;&quot;&gt;}&lt;/font&gt;&lt;br&gt;&lt;/div&gt;" style="shape=process;whiteSpace=wrap;html=1;backgroundOutline=1;size=0.0375;" parent="-yMm5iQ5VptiepZ6VYrb-163" vertex="1">
          <mxGeometry x="-7.54" y="10" width="227.54" height="120" as="geometry" />
        </mxCell>
        <mxCell id="-yMm5iQ5VptiepZ6VYrb-165" value="" style="endArrow=classic;html=1;rounded=0;entryX=0;entryY=0.75;entryDx=0;entryDy=0;" parent="1" target="-yMm5iQ5VptiepZ6VYrb-164" edge="1">
          <mxGeometry width="50" height="50" relative="1" as="geometry">
            <mxPoint x="160" y="1920" as="sourcePoint" />
            <mxPoint x="230" y="1919" as="targetPoint" />
          </mxGeometry>
        </mxCell>
        <mxCell id="9ZKyDkTpBno9s-9ZtQ4g-4" value="" style="rounded=1;whiteSpace=wrap;html=1;" vertex="1" parent="1">
          <mxGeometry x="-10" y="2810" width="1250" height="950" as="geometry" />
        </mxCell>
        <mxCell id="9ZKyDkTpBno9s-9ZtQ4g-5" value="bookhistiory" style="rounded=0;whiteSpace=wrap;html=1;" vertex="1" parent="1">
          <mxGeometry x="90" y="2790" width="190" height="60" as="geometry" />
        </mxCell>
        <mxCell id="9ZKyDkTpBno9s-9ZtQ4g-6" value="&lt;span style=&quot;font-size: 18px;&quot;&gt;BookHistioy.js&lt;/span&gt;" style="text;html=1;strokeColor=none;fillColor=none;align=center;verticalAlign=middle;whiteSpace=wrap;rounded=0;" vertex="1" parent="1">
          <mxGeometry x="550" y="2750" width="140" height="60" as="geometry" />
        </mxCell>
        <mxCell id="9ZKyDkTpBno9s-9ZtQ4g-7" value="" style="endArrow=classic;html=1;rounded=0;" edge="1" parent="1">
          <mxGeometry width="50" height="50" relative="1" as="geometry">
            <mxPoint x="160" y="2955" as="sourcePoint" />
            <mxPoint x="160" y="3555" as="targetPoint" />
          </mxGeometry>
        </mxCell>
        <mxCell id="9ZKyDkTpBno9s-9ZtQ4g-8" value="" style="group" vertex="1" connectable="0" parent="1">
          <mxGeometry x="100" y="2865" width="110" height="110" as="geometry" />
        </mxCell>
        <mxCell id="9ZKyDkTpBno9s-9ZtQ4g-9" value="" style="ellipse;whiteSpace=wrap;html=1;aspect=fixed;" vertex="1" parent="9ZKyDkTpBno9s-9ZtQ4g-8">
          <mxGeometry width="110" height="110" as="geometry" />
        </mxCell>
        <mxCell id="9ZKyDkTpBno9s-9ZtQ4g-10" value="생성" style="ellipse;whiteSpace=wrap;html=1;aspect=fixed;" vertex="1" parent="9ZKyDkTpBno9s-9ZtQ4g-8">
          <mxGeometry x="15" y="15" width="80" height="80" as="geometry" />
        </mxCell>
        <mxCell id="9ZKyDkTpBno9s-9ZtQ4g-11" value="" style="group" vertex="1" connectable="0" parent="1">
          <mxGeometry x="100" y="3560" width="110" height="110" as="geometry" />
        </mxCell>
        <mxCell id="9ZKyDkTpBno9s-9ZtQ4g-12" value="" style="ellipse;whiteSpace=wrap;html=1;aspect=fixed;" vertex="1" parent="9ZKyDkTpBno9s-9ZtQ4g-11">
          <mxGeometry width="110" height="110" as="geometry" />
        </mxCell>
        <mxCell id="9ZKyDkTpBno9s-9ZtQ4g-13" value="생성&lt;br&gt;완료" style="ellipse;whiteSpace=wrap;html=1;aspect=fixed;" vertex="1" parent="9ZKyDkTpBno9s-9ZtQ4g-11">
          <mxGeometry x="15" y="15" width="80" height="80" as="geometry" />
        </mxCell>
        <mxCell id="9ZKyDkTpBno9s-9ZtQ4g-19" value="" style="endArrow=classic;html=1;rounded=0;" edge="1" parent="1">
          <mxGeometry width="50" height="50" relative="1" as="geometry">
            <mxPoint x="1070" y="2950" as="sourcePoint" />
            <mxPoint x="1070" y="3550" as="targetPoint" />
          </mxGeometry>
        </mxCell>
        <mxCell id="9ZKyDkTpBno9s-9ZtQ4g-20" value="" style="group" vertex="1" connectable="0" parent="1">
          <mxGeometry x="1010" y="3555" width="110" height="110" as="geometry" />
        </mxCell>
        <mxCell id="9ZKyDkTpBno9s-9ZtQ4g-21" value="" style="ellipse;whiteSpace=wrap;html=1;aspect=fixed;" vertex="1" parent="9ZKyDkTpBno9s-9ZtQ4g-20">
          <mxGeometry width="110" height="110" as="geometry" />
        </mxCell>
        <mxCell id="9ZKyDkTpBno9s-9ZtQ4g-22" value="갱신완료" style="ellipse;whiteSpace=wrap;html=1;aspect=fixed;" vertex="1" parent="9ZKyDkTpBno9s-9ZtQ4g-20">
          <mxGeometry x="15" y="15" width="80" height="80" as="geometry" />
        </mxCell>
        <mxCell id="9ZKyDkTpBno9s-9ZtQ4g-24" value="갱신" style="rounded=0;whiteSpace=wrap;html=1;" vertex="1" parent="1">
          <mxGeometry x="1000" y="2890" width="120" height="60" as="geometry" />
        </mxCell>
        <mxCell id="9ZKyDkTpBno9s-9ZtQ4g-26" value="" style="group" vertex="1" connectable="0" parent="1">
          <mxGeometry x="190" y="2980" width="680" height="564.72" as="geometry" />
        </mxCell>
        <mxCell id="9ZKyDkTpBno9s-9ZtQ4g-27" value="" style="group" vertex="1" connectable="0" parent="9ZKyDkTpBno9s-9ZtQ4g-26">
          <mxGeometry width="680" height="564.72" as="geometry" />
        </mxCell>
        <mxCell id="9ZKyDkTpBno9s-9ZtQ4g-28" value="&lt;font style=&quot;font-size: 15px;&quot;&gt;map함수로 props로 가져온값 분해하여 렌더링&lt;br&gt;&lt;/font&gt;" style="shape=process;whiteSpace=wrap;html=1;backgroundOutline=1;size=0.0375;" vertex="1" parent="9ZKyDkTpBno9s-9ZtQ4g-27">
          <mxGeometry x="49.63999999999999" y="87.03141942857143" width="620.5064150943396" height="477.6885805714286" as="geometry" />
        </mxCell>
        <mxCell id="9ZKyDkTpBno9s-9ZtQ4g-29" value="render()" style="text;html=1;align=center;verticalAlign=middle;resizable=0;points=[];autosize=1;strokeColor=none;fillColor=none;" vertex="1" parent="9ZKyDkTpBno9s-9ZtQ4g-27">
          <mxGeometry x="80.83300710029792" y="92.15650733580875" width="70" height="30" as="geometry" />
        </mxCell>
        <mxCell id="9ZKyDkTpBno9s-9ZtQ4g-36" value="" style="endArrow=classic;html=1;rounded=0;entryX=0;entryY=0.402;entryDx=0;entryDy=0;entryPerimeter=0;" edge="1" parent="1">
          <mxGeometry width="50" height="50" relative="1" as="geometry">
            <mxPoint x="160" y="3321" as="sourcePoint" />
            <mxPoint x="230" y="3320" as="targetPoint" />
          </mxGeometry>
        </mxCell>
        <mxCell id="9ZKyDkTpBno9s-9ZtQ4g-41" value="" style="endArrow=classic;html=1;rounded=0;" edge="1" parent="1">
          <mxGeometry width="50" height="50" relative="1" as="geometry">
            <mxPoint x="1070" y="3300" as="sourcePoint" />
            <mxPoint x="860" y="3300" as="targetPoint" />
          </mxGeometry>
        </mxCell>
      </root>
    </mxGraphModel>
  </diagram>
</mxfile>
